<svg xmlns="http://www.w3.org/2000/svg" xmlns:xlink="http://www.w3.org/1999/xlink" width="300" height="300" viewBox="0 0 300 300">
  <defs>
    <circle id="atomic-a" cx="65" cy="65" r="65"/>
  </defs>
  <g fill="none" fill-rule="evenodd" transform="translate(-191 -44)">
    <rect width="1440" height="550"/>
    <g transform="translate(191 44)">
      <rect width="300" height="300"/>
      <g transform="translate(67 67)">
        <g transform="translate(28 27)">
          <use fill="#FF2E2E" fill-opacity=".664" xlink:href="#atomic-a"/>
        </g>
        <path stroke="#333554" stroke-linecap="round" stroke-width="4" d="M145.515303,100.860896 C146.199401,98.4619318 146.782731,95.1902927 147.265293,91.0459787 M144.378659,61.5532514 C135.517927,36.1926055 111.383519,18 83,18 C47.1014913,18 18,47.1014913 18,83 C18,118.898509 47.1014913,148 83,148 C87.03687,148 90.9877883,147.631996 94.8210373,146.927707" transform="rotate(-19 82.633 83)"/>
      </g>
      <g transform="translate(25 22)">
        <g transform="translate(204 174)">
          <circle cx="28" cy="28" r="23" fill="#8B59FF" fill-opacity=".696"/>
          <circle cx="22.5" cy="22.5" r="22.5" stroke="#333554" stroke-width="4"/>
        </g>
        <path stroke="#333554" stroke-linecap="round" stroke-width="4" d="M205.949971,160.887708 C239.047562,154.377554 261.704675,143.959609 265.451261,132.015133 M216.915795,98.5035085 C203.065343,95.1641622 186.87542,92.5699051 169.132186,90.9417572 C161.123131,90.2068335 152.79759,89.6687541 144.227865,89.3478464 C138.10124,89.1184246 131.849812,89 125.5,89 C47.9039927,89 -15,106.684752 -15,128.5 C-15,140.970126 5.55415484,152.090595 37.657395,159.329732" transform="rotate(45 125.226 124.944)"/>
      </g>
      <g transform="translate(10 114)">
        <path stroke="#333554" stroke-linecap="round" stroke-width="4" d="M62.4736158,69.3539119 C84.7932487,73.5519414 111.629734,76 140.5,76 C161.657456,76 181.722643,74.6852381 199.718263,72.3304707 M235.363128,65.6375312 C263.411672,58.4159239 281,48.0354174 281,36.5 C281,26.5418135 267.892543,17.4443082 246.263432,10.4967309 C236.560891,7.38013724 225.143534,4.69617444 212.425318,2.56122203 M85.5342325,0.137122593 C84.9900243,0.20222408 84.4475764,0.268262959 83.9069145,0.335232021 C34.4950343,6.4556318 0,20.3452839 0,36.5 C0,41.044434 2.72971633,45.4096253 7.75332223,49.4730461"/>
        <g transform="translate(15 45)">
          <circle cx="23" cy="23" r="19" fill="#46FF7E" fill-opacity=".664"/>
          <circle cx="18.5" cy="18.5" r="18.5" stroke="#333554" stroke-width="4"/>
        </g>
      </g>
      <g transform="translate(28 24)">
        <path stroke="#333554" stroke-linecap="round" stroke-width="4" d="M44.2878881,159.318919 C50.2062772,160.43592 56.4434587,161.429736 62.9529806,162.287306 M207.698392,157.911595 C241.312864,150.694355 263,139.309204 263,126.5 C263,116.541813 249.892543,107.444308 228.263432,100.496731 C217.645148,97.0859879 204.973079,94.1933944 190.789802,91.9714902 M32.0764819,96.2664927 C1.45667876,103.512309 -18,114.367358 -18,126.5 C-18,129.920749 -16.4533202,133.239938 -13.545843,136.405308" transform="rotate(133 122.5 127.13)"/>
        <g transform="translate(162 14)">
          <circle cx="23" cy="23" r="19" fill="#467DFF" fill-opacity=".664"/>
          <circle cx="18.5" cy="18.5" r="18.5" stroke="#333554" stroke-width="4"/>
        </g>
      </g>
    </g>
  </g>
</svg>
