<svg xmlns="http://www.w3.org/2000/svg" width="269" height="246" viewBox="0 0 269 246">
  <g fill="none" fill-rule="evenodd" transform="translate(-16 -27)">
    <rect width="300" height="300"/>
    <g transform="translate(16 132)">
      <rect width="144" height="47" x="7" y="7" fill="#48FF65" fill-opacity=".551" rx="2"/>
      <rect width="142" height="46" x="1.5" y="1.5" stroke="#333554" stroke-width="3" rx="3"/>
      <text fill="#FFF" font-family="OpenSans-Semibold, Open Sans" font-size="20" font-weight="500" letter-spacing=".4">
        <tspan x="40" y="33">Button</tspan>
      </text>
      <text fill="#333554" font-family="OpenSans-Semibold, Open Sans" font-size="20" font-weight="500" letter-spacing=".4">
        <tspan x="40" y="33">Button</tspan>
      </text>
    </g>
    <g transform="translate(105 27)">
      <rect width="121" height="90" x="7" y="8" fill="#32D2FF" fill-opacity=".522" rx="2"/>
      <rect width="118" height="89" x="1.5" y="1.5" stroke="#333554" stroke-width="3" rx="3"/>
      <path fill="#FFF" d="M17,77.3483006 L36.2661043,58.5395892 L36.2661043,58.5395892 C36.6545945,58.160322 37.2747378,58.160322 37.6632281,58.5395892 L50.7048011,71.2715448 L50.7048011,71.2715448 C51.0932914,71.650812 51.7134347,71.650812 52.1019249,71.2715448 L81.396935,42.6720219 L81.396935,42.6720219 C81.7813442,42.2967388 82.3935828,42.2922393 82.7834663,42.6618319 L110,68.4619144 L110,82.1870428 L110,82.1870428 C110,82.7393275 109.552285,83.1870428 109,83.1870428 C108.999016,83.1870428 108.998032,83.1870413 108.997049,83.1870384 L17,82.9155096 L17,77.3483006 Z"/>
      <polygon stroke="#333554" stroke-width="2" points="15 73.208 34.965 53.243 49.403 67.682 80.085 37 108 64.105 108 79.192 15 78.91"/>
      <circle cx="33" cy="31" r="10" fill="#FFF"/>
      <circle cx="29" cy="28" r="10" stroke="#333554" stroke-width="2"/>
    </g>
    <g transform="translate(178 143)">
      <rect width="66" height="28" x="4" y="5" fill="#FF4EBD" fill-opacity=".573" rx="14"/>
      <rect width="63" height="27" x="1.5" y="1.5" stroke="#333554" stroke-width="3" rx="13.5"/>
      <circle cx="20" cy="16" r="10" fill="#FFF"/>
      <circle cx="17" cy="15" r="10" stroke="#333554" stroke-width="2"/>
    </g>
    <g transform="translate(122 192)">
      <rect width="158" height="32" x="5" y="6" fill="#4F8FFE" fill-opacity=".457" rx="2"/>
      <text fill="#333554" font-family="OpenSans-Semibold, Open Sans" font-size="16" font-weight="500" letter-spacing=".4">
        <tspan x="102" y="23">Input</tspan>
      </text>
      <rect width="155" height="31" x="1.5" y="1.5" stroke="#333554" stroke-width="3" rx="3"/>
      <g stroke="#FFF" stroke-width="2" transform="translate(17 10)">
        <path stroke-linecap="round" d="M0 1L8 1M0 19L8 19"/>
        <path d="M4,1 L4,19"/>
      </g>
      <g stroke="#333554" stroke-width="2" transform="translate(14 8)">
        <path stroke-linecap="round" d="M0 1L8 1M0 19L8 19"/>
        <path d="M4,1 L4,19"/>
      </g>
    </g>
    <g transform="translate(30 195)">
      <rect width="25" height="55" x="5" y="23" fill="#FF4A4A" fill-opacity=".596" rx="2"/>
      <rect width="49" height="55" x="33" y="23" fill="#FF4A4A" fill-opacity=".596" rx="2"/>
      <rect width="77" height="14" x="5" y="6" fill="#FF4A4A" fill-opacity=".596" rx="2"/>
      <rect width="77" height="72" y="1" stroke="#333554" stroke-linecap="round" stroke-linejoin="bevel" stroke-width="3" rx="3"/>
      <path stroke="#333554" stroke-width="2" d="M0 15L77.0064932 15M26 73L26 .99305589"/>
    </g>
    <g fill="#333554" fill-rule="nonzero" transform="translate(59 53)">
      <path d="M88.222044,212.634366 C87.1222605,213.19279 85.9493451,212.019875 86.5077694,210.920092 L88.4621432,207.071068 L86.5077694,203.222044 C85.9493451,202.12226 87.1222605,200.949345 88.222044,201.507769 L92.0710678,203.462143 L95.9200917,201.507769 C97.0198752,200.949345 98.1927905,202.12226 97.6343663,203.222044 L95.6799924,207.071068 L97.6343663,210.920092 C98.1927905,212.019875 97.0198752,213.19279 95.9200917,212.634366 L92.0710678,210.679992 L88.222044,212.634366 Z" transform="rotate(45 92.071 207.071)"/>
      <path d="M113.073846,193.697129 C112.533638,193.971424 111.957508,193.395294 112.231803,192.855086 L113.191781,190.964466 L112.231803,189.073846 C111.957508,188.533638 112.533638,187.957508 113.073846,188.231803 L114.964466,189.191781 L116.855086,188.231803 C117.395294,187.957508 117.971424,188.533638 117.697129,189.073846 L116.737151,190.964466 L117.697129,192.855086 C117.971424,193.395294 117.395294,193.971424 116.855086,193.697129 L114.964466,192.737151 L113.073846,193.697129 Z" transform="rotate(45 114.964 190.964)"/>
      <path d="M143.298477,200.193209 C142.960242,200.364951 142.599515,200.004224 142.771257,199.665989 L143.372319,198.482233 L142.771257,197.298477 C142.599515,196.960242 142.960242,196.599515 143.298477,196.771257 L144.482233,197.372319 L145.665989,196.771257 C146.004224,196.599515 146.364951,196.960242 146.193209,197.298477 L145.592147,198.482233 L146.193209,199.665989 C146.364951,200.004224 146.004224,200.364951 145.665989,200.193209 L144.482233,199.592147 L143.298477,200.193209 Z" transform="rotate(45 144.482 198.482)"/>
      <path d="M4.22204396,42.6343663 C3.12226046,43.1927905 1.94934514,42.0198752 2.50776935,40.9200917 L4.46214322,37.0710678 L2.50776935,33.222044 C1.94934514,32.1222605 3.12226046,30.9493451 4.22204396,31.5077694 L8.07106781,33.4621432 L11.9200917,31.5077694 C13.0198752,30.9493451 14.1927905,32.1222605 13.6343663,33.222044 L11.6799924,37.0710678 L13.6343663,40.9200917 C14.1927905,42.0198752 13.0198752,43.1927905 11.9200917,42.6343663 L8.07106781,40.6799924 L4.22204396,42.6343663 Z" transform="rotate(45 8.071 37.071)"/>
      <path d="M208.222044,50.6343663 C207.12226,51.1927905 205.949345,50.0198752 206.507769,48.9200917 L208.462143,45.0710678 L206.507769,41.222044 C205.949345,40.1222605 207.12226,38.9493451 208.222044,39.5077694 L212.071068,41.4621432 L215.920092,39.5077694 C217.019875,38.9493451 218.19279,40.1222605 217.634366,41.222044 L215.679992,45.0710678 L217.634366,48.9200917 C218.19279,50.0198752 217.019875,51.1927905 215.920092,50.6343663 L212.071068,48.6799924 L208.222044,50.6343663 Z" transform="rotate(45 212.071 45.071)"/>
      <path d="M200.606248,9.39866465 C199.927357,9.74337735 199.203322,9.01934212 199.548034,8.34045082 L200.75446,5.96446609 L199.548034,3.58848137 C199.203322,2.90959007 199.927357,2.18555484 200.606248,2.53026754 L202.982233,3.73669354 L205.358218,2.53026754 C206.037109,2.18555484 206.761144,2.90959007 206.416432,3.58848137 L205.210006,5.96446609 L206.416432,8.34045082 C206.761144,9.01934212 206.037109,9.74337735 205.358218,9.39866465 L202.982233,8.19223865 L200.606248,9.39866465 Z" transform="rotate(45 202.982 5.964)"/>
      <path d="M191.508584,26.7555962 C191.115619,26.9551274 190.696523,26.5360316 190.896054,26.1430665 L191.594374,24.767767 L190.896054,23.3924674 C190.696523,22.9995023 191.115619,22.5804065 191.508584,22.7799377 L192.883883,23.4782575 L194.259183,22.7799377 C194.652148,22.5804065 195.071244,22.9995023 194.871713,23.3924674 L194.173393,24.767767 L194.871713,26.1430665 C195.071244,26.5360316 194.652148,26.9551274 194.259183,26.7555962 L192.883883,26.0572764 L191.508584,26.7555962 Z" transform="rotate(45 192.884 24.768)"/>
      <path d="M21.796988,12.5325657 C21.3103856,12.7796421 20.7914257,12.2606823 21.0385022,11.7740798 L21.9032206,10.0710678 L21.0385022,8.36805583 C20.7914257,7.88145337 21.3103856,7.36249352 21.796988,7.60956996 L23.5,8.47428846 L25.203012,7.60956996 C25.6896144,7.36249352 26.2085743,7.88145337 25.9614978,8.36805583 L25.0967794,10.0710678 L25.9614978,11.7740798 C26.2085743,12.2606823 25.6896144,12.7796421 25.203012,12.5325657 L23.5,11.6678472 L21.796988,12.5325657 Z" transform="rotate(45 23.5 10.071)"/>
    </g>
  </g>
</svg>
