<svg xmlns="http://www.w3.org/2000/svg" width="256" height="196" viewBox="0 0 256 196">
  <g fill="none" fill-rule="evenodd" transform="translate(-21 -51)">
    <rect width="300" height="300"/>
    <g transform="translate(67 53)">
      <path fill="#FF43E7" fill-opacity=".446" d="M7.34265734,59 L7.34265734,11.8125 L7.34265734,11.8125 C7.34265734,9.603361 9.13351834,7.8125 11.3426573,7.8125 L11.3426573,7.8125 L206,7.8125 L206,7.8125 C208.209139,7.8125 210,9.603361 210,11.8125 L210,155.09375 C210,157.302889 208.209139,159.09375 206,159.09375 L92,159.09375 L92,134.125 L190.377622,134.125 C191.482192,134.125 192.377622,133.229569 192.377622,132.125 L192.377622,132.125 L192.377622,24.5 C192.377622,23.3954305 191.482192,22.5 190.377622,22.5 L24.027972,22.5 C22.9234025,22.5 22.027972,23.3954305 22.027972,24.5 L22.027972,59 L7.34265734,59 Z"/>
      <path stroke="#333554" stroke-linecap="round" stroke-width="2" d="M16.1538462,52.875 L16.1538462,23.5 C16.1538462,19.4441589 19.4412658,16.15625 23.4965035,16.15625 L179.160839,16.15625 C183.216077,16.15625 186.503497,19.4441589 186.503497,23.5 L186.503497,120.4375 C186.503497,124.493341 183.216077,127.78125 179.160839,127.78125 L96.9230769,127.78125"/>
      <path stroke="#333554" stroke-linecap="round" stroke-width="3" d="M0,51.40625 L0,14.6875 C-3.60188269e-15,6.57581774 6.57483934,1.49009186e-15 14.6853147,0 L187.972028,5.21804822e-15 C196.082503,1.81371986e-14 202.657343,6.57581774 202.657343,14.6875 L202.657343,139.53125 C202.657343,147.642932 196.082503,154.21875 187.972028,154.21875 C148.394351,154.21875 118.534212,154.21875 98.3916084,154.21875"/>
      <g stroke="#333554" stroke-width="3" transform="translate(96 152)">
        <path stroke-linecap="round" d="M0.923076923,34.53125 L42.041958,34.53125"/>
        <path d="M18.5454545,0.75 L18.5454545,33.0625"/>
      </g>
      <path stroke="#333554" stroke-linecap="round" stroke-width="2" d="M154,26 L161,26 L174,26 L174,26 C176.209139,26 178,27.790861 178,30 M178,75 L178,79 M178,84 L178,97 L178,99 L178,99"/>
    </g>
    <g transform="translate(46 113)">
      <path fill="#8382FF" fill-opacity=".503" d="M16.1428571,35 L7.33766234,35 L7.33766234,13.8666667 L7.33766234,13.8666667 C7.33766234,10.5529582 10.0239538,7.86666667 13.3376623,7.86666667 L13.3376623,7.86666667 L107,7.86666667 L107,7.86666667 C110.313708,7.86666667 113,10.5529582 113,13.8666667 L113,128 L113,128 C113,131.313708 110.313708,134 107,134 L27.1688312,134 L41,134 C44.3137085,134 47,131.313708 47,128 L47,128 L47,112.933333 L99.2597403,112.933333 C100.36431,112.933333 101.25974,112.037903 101.25974,110.933333 L101.25974,18.1333333 C101.25974,17.0287638 100.36431,16.1333333 99.2597403,16.1333333 L18.1428571,16.1333333 C17.0382876,16.1333333 16.1428571,17.0287638 16.1428571,18.1333333 L16.1428571,35 Z"/>
      <path stroke="#333554" stroke-linecap="round" stroke-width="3" d="M0,24.9333333 L0,13.2 L0,13.2 C0,5.9098413 5.91332999,0 13.2077922,0 L13.2077922,0 L93.9220779,0 L93.9220779,0 C101.21654,0 107.12987,5.9098413 107.12987,13.2 L107.12987,115.866667 L107.12987,115.866667 C107.12987,123.156825 101.21654,129.066667 93.9220779,129.066667 L51.3636364,129.066667"/>
      <path stroke="#333554" stroke-linecap="round" stroke-width="2" d="M11.7402597,26.4 L11.7402597,17.6 L11.7402597,17.6 C11.7402597,14.3599295 14.3684064,11.7333333 17.6103896,11.7333333 L17.6103896,11.7333333 L90.987013,11.7333333 L90.987013,11.7333333 C94.2289962,11.7333333 96.8571429,14.3599295 96.8571429,17.6 L96.8571429,102.666667 L96.8571429,102.666667 C96.8571429,105.906737 94.2289962,108.533333 90.987013,108.533333 L51.3636364,108.533333"/>
      <path stroke="#333554" stroke-linecap="round" stroke-width="2" d="M65,20 L72,20 L85,20 L85,20 C87.209139,20 89,21.790861 89,24 M89,69 L89,73 M89,78 L89,91 L89,93 L89,93"/>
    </g>
    <g transform="translate(23 148)">
      <path fill="#35C0FF" fill-opacity=".503" d="M11.76,5.31884058 L64,5.31884058 C67.3137085,5.31884058 70,8.00513208 70,11.3188406 L70,93 L70,93 C70,96.3137085 67.3137085,99 64,99 L11.76,99 C8.4462915,99 5.76,96.3137085 5.76,93 L5.76,11.3188406 L5.76,11.3188406 C5.76,8.00513208 8.4462915,5.31884058 11.76,5.31884058 L11.76,5.31884058 Z M16.6,14.6376812 C15.4954305,14.6376812 14.6,15.5331117 14.6,16.6376812 L14.6,81.4347826 C14.6,82.5393521 15.4954305,83.4347826 16.6,83.4347826 L59.32,83.4347826 C60.4245695,83.4347826 61.32,82.5393521 61.32,81.4347826 L61.32,16.6376812 C61.32,15.5331117 60.4245695,14.6376812 59.32,14.6376812 L16.6,14.6376812 Z"/>
      <rect width="67.16" height="95.145" stroke="#333554" stroke-width="3" rx="9"/>
      <rect width="46.72" height="68.797" x="10.22" y="10.246" stroke="#333554" stroke-width="2" rx="3"/>
      <path stroke="#333554" stroke-linecap="round" stroke-width="2" d="M33,17 L46,17 C48.209139,17 50,18.790861 50,21 M50,48 L50,52 M50,57 L50,70 L50,72 L50,72"/>
    </g>
  </g>
</svg>
