<svg xmlns="http://www.w3.org/2000/svg" width="216" height="44" viewBox="0 0 216 44">
  <path fill="#FFF" d="M9.7441253,1.8798956 C14.4125326,1.8798956 17.2950392,3.9791123 17.2950392,7.3629243 C17.2950392,9.7754569 15.8537859,11.6240209 13.4725849,12.2193211 C16.386423,12.7519582 18.1409922,14.8511749 18.1409922,17.7650131 C18.1409922,21.5248042 15.0391645,23.8120104 10.0261097,23.8120104 L1.42108547e-14,23.8120104 L1.42108547e-14,1.8798956 L9.7441253,1.8798956 Z M9.5248042,10.8407311 C11.6866841,10.8407311 13.002611,9.8381201 13.002611,8.1148825 C13.002611,6.4543081 11.6866841,5.4830287 9.5248042,5.5143603 L4.1984334,5.5143603 L4.1984334,10.8407311 L9.5248042,10.8407311 Z M9.5248042,20.1775457 C12.1879896,20.2088773 13.7859008,19.1122715 13.7859008,17.232376 C13.7859008,15.4464752 12.1879896,14.3498695 9.5248042,14.381201 L4.1984334,14.381201 L4.1984334,20.1775457 L9.5248042,20.1775457 Z M24.0939948,0 C22.8093995,0 21.9007833,0.9399478 21.9007833,2.2558747 C21.9007833,3.5718016 22.8093995,4.5117493 24.0939948,4.5117493 C25.3785901,4.5117493 26.2872063,3.5718016 26.2872063,2.2558747 C26.2872063,0.9399478 25.3785901,0 24.0939948,0 Z M22.0574413,7.0496084 L22.0574413,23.8120104 L26.1305483,23.8120104 L26.1305483,7.0496084 L22.0574413,7.0496084 Z M38.5065274,6.924282 C43.738903,6.924282 47.310705,10.3394256 47.310705,15.4151436 C47.310705,20.5221932 43.738903,23.9686684 38.5065274,23.9686684 C33.2114883,23.9686684 29.6396867,20.5221932 29.6396867,15.4151436 C29.6396867,10.3394256 33.2114883,6.924282 38.5065274,6.924282 Z M38.5065274,10.4020888 C35.6866841,10.4020888 33.7441253,12.4699739 33.7441253,15.4778068 C33.7441253,18.4856397 35.6866841,20.5535248 38.5065274,20.5535248 C41.263708,20.5535248 43.206266,18.4856397 43.206266,15.4778068 C43.206266,12.4699739 41.263708,10.4020888 38.5065274,10.4020888 Z M72.814621,6.8929504 C69.869452,6.924282 67.67624,8.1775457 66.579634,10.9033943 C65.796345,8.3655352 63.759791,6.8929504 60.814621,6.8929504 C58.151436,6.924282 56.083551,7.926893 54.924282,10.151436 L54.924282,7.0496084 L50.851175,7.0496084 L50.851175,23.8120104 L54.924282,23.8120104 L54.924282,15.54047 C54.924282,12.8146214 56.522193,10.8093995 59.185379,10.7154047 C61.441253,10.7154047 62.819843,12.156658 62.819843,14.537859 L62.819843,23.8120104 L66.924282,23.8120104 L66.924282,15.54047 C66.924282,12.8146214 68.522193,10.8093995 71.154047,10.7154047 C73.409922,10.7154047 74.819843,12.156658 74.819843,14.537859 L74.819843,23.8120104 L78.924282,23.8120104 L78.924282,13.3472585 C78.924282,9.3681462 76.605744,6.8929504 72.814621,6.8929504 Z M95.530026,7.0496084 L99.603133,7.0496084 L99.603133,23.8120104 L95.530026,23.8120104 L95.530026,21.1488251 C94.339426,22.9660574 92.428198,24 89.921671,24 C85.127937,24 81.932115,20.4908616 81.932115,15.383812 C81.932115,10.3394256 85.065274,6.924282 89.765013,6.8929504 C92.334204,6.8616188 94.308094,7.8955614 95.530026,9.7441253 L95.530026,7.0496084 Z M90.798956,20.5848564 C93.430809,20.5848564 95.279373,18.767624 95.530026,16.073107 L95.530026,14.8825065 C95.279373,12.1879896 93.430809,10.3707572 90.798956,10.3707572 C88.010444,10.3707572 86.067885,12.5013055 86.036554,15.4778068 C86.067885,18.4856397 87.979112,20.5848564 90.798956,20.5848564 Z M112.449086,19.7075718 C111.54047,20.1462141 110.75718,20.3968668 110.099217,20.3968668 C108.971279,20.3968668 108.313316,19.5822454 108.313316,17.7650131 L108.313316,10.7154047 L113.10705,10.7154047 L113.10705,7.7389034 L108.313316,7.7389034 L108.313316,3.1331593 L104.240209,3.1331593 L104.240209,18.4856397 C104.240209,22.1201044 106.43342,24 109.253264,24 C110.600522,24 112.073107,23.5613577 113.389034,22.7780679 L112.449086,19.7075718 Z M118.590078,0 C117.305483,0 116.396867,0.9399478 116.396867,2.2558747 C116.396867,3.5718016 117.305483,4.5117493 118.590078,4.5117493 C119.874674,4.5117493 120.78329,3.5718016 120.78329,2.2558747 C120.78329,0.9399478 119.874674,0 118.590078,0 Z M116.553525,7.0496084 L116.553525,23.8120104 L120.626632,23.8120104 L120.626632,7.0496084 L116.553525,7.0496084 Z M137.201044,12.3446475 L139.67624,9.9947781 C138.172324,8.0522193 135.72846,6.924282 132.657963,6.924282 C127.613577,6.924282 124.13577,10.3707572 124.13577,15.4778068 C124.13577,20.5221932 127.582245,23.9686684 132.5953,23.9686684 C135.885117,23.9686684 138.391645,22.7154047 139.86423,20.5848564 L137.326371,18.4856397 C136.32376,19.8015666 134.75718,20.45953 132.814621,20.45953 C130.120104,20.45953 128.240209,18.4543081 128.240209,15.4464752 C128.240209,12.5013055 130.120104,10.4960836 132.814621,10.4960836 C134.663185,10.4960836 136.13577,11.1853786 137.201044,12.3446475 Z M167.373368,1.8798956 L167.373368,13.691906 C167.373368,17.075718 164.992167,19.7075718 161.577023,19.770235 C158.694517,19.770235 156.689295,17.7336815 156.689295,14.7885117 L156.689295,1.8798956 L152.428198,1.8798956 L152.428198,15.7911227 C152.428198,20.5848564 155.592689,23.8120104 160.041775,23.8120104 C163.237598,23.7806789 165.806789,22.464752 167.373368,20.2088773 L167.373368,23.8120104 L171.571802,23.8120104 L171.571802,1.8798956 L167.373368,1.8798956 Z M188.052219,5.5456919 L188.052219,1.8798956 L175.801567,1.8798956 L175.801567,5.5456919 L179.843342,5.5456919 L179.843342,20.1462141 L175.801567,20.1462141 L175.801567,23.8120104 L188.052219,23.8120104 L188.052219,20.1462141 L184.041775,20.1462141 L184.041775,5.5456919 L188.052219,5.5456919 Z" transform="translate(13 10)"/>
</svg>
