<svg xmlns="http://www.w3.org/2000/svg" width="60" height="60" viewBox="0 0 60 60">
  <g fill="none" fill-rule="evenodd" transform="rotate(90 20.5 26.5)">
    <g transform="translate(3.232 3.044)">
      <path fill="#AE71FA" d="M21.0260199,3.94041558 L27.5468395,15.2348065 C29.6741108,18.9193485 28.4116935,23.630754 24.7271516,25.7580252 C23.5560669,26.4341513 22.2276383,26.7901027 20.8753862,26.7901027 L7.83374691,26.7901027 C3.57920435,26.7901027 0.130216153,23.3411145 0.130216153,19.0865719 C0.130216153,17.7343198 0.486167533,16.4058912 1.16229358,15.2348065 L7.68311323,3.94041558 C9.81038451,0.255873649 14.52179,-1.00654365 18.2063319,1.12072763 C19.3774166,1.79685367 20.3498939,2.76933093 21.0260199,3.94041558 L21.0260199,3.94041558 Z"/>
      <path fill="#FFD238" d="M34.4888191,3.94041558 L41.0096388,15.2348065 C43.13691,18.9193485 41.8744927,23.630754 38.1899508,25.7580252 C37.0188661,26.4341513 35.6904375,26.7901027 34.3381854,26.7901027 L21.2965461,26.7901027 C17.0420036,26.7901027 13.5930154,23.3411145 13.5930154,19.0865719 C13.5930154,17.7343198 13.9489667,16.4058912 14.6250928,15.2348065 L21.1459124,3.94041558 C23.2731837,0.255873649 27.9845892,-1.00654365 31.6691311,1.12072763 C32.8402158,1.79685367 33.8126931,2.76933093 34.4888191,3.94041558 Z"/>
      <path fill="#FF4296" d="M30.0071264,19.0935491 C30.89091,20.6243072 29.6120018,25.2713354 28.0812437,26.155119 C27.5947118,26.4360183 26.7171597,27.4390408 26.155361,27.4390408 L15.8839867,27.4390408 C14.1164195,27.4390408 12.0322213,24.7128817 12.0322213,22.9453145 C12.0322213,22.3835158 11.1093611,20.222042 11.3902604,19.73551 L21.0859662,4.04424557 L30.0071264,19.0935491 Z"/>
    </g>
    <g fill="#710377" fill-rule="nonzero" transform="translate(.238 .238)">
      <path d="M37.138793,7.32310948 C36.4626669,6.15202483 35.4901897,5.17954757 34.319105,4.50342153 C30.6345631,2.37615025 25.9231576,3.63856755 23.7958863,7.32310948 L17.685838,17.9060237 C17.0097119,19.0771083 16.6537605,20.405537 16.6537605,21.757789 C16.6537605,26.0123316 20.1027487,29.4613198 24.3572913,29.4613198 L36.577388,29.4613198 C37.9296401,29.4613198 39.2580687,29.1053684 40.4291534,28.4292424 C44.1136953,26.3019711 45.3761126,21.5905656 43.2488413,17.9060237 L37.138793,7.32310948 Z M39.9185652,5.71820724 L46.0286136,16.3011214 C49.0422479,21.5208892 47.2538234,28.1953803 42.0340556,31.2090146 C40.375019,32.1668598 38.4930785,32.6711243 36.577388,32.6711243 L24.3572913,32.6711243 C18.3300227,32.6711243 13.4439561,27.7850577 13.4439561,21.757789 C13.4439561,19.8420986 13.9482205,17.960158 14.9060657,16.3011214 L21.0161141,5.71820724 C24.0297484,0.498439502 30.7042395,-1.289985 35.9240073,1.72364931 C37.5830439,2.68149453 38.96072,4.05917064 39.9185652,5.71820724 Z"/>
      <path d="M23.9543973,7.32310948 C23.2782713,6.15202483 22.305794,5.17954757 21.1347094,4.50342153 C17.4501674,2.37615025 12.7387619,3.63856755 10.6114906,7.32310948 L4.50144229,17.9060237 C3.82531625,19.0771083 3.46936487,20.405537 3.46936487,21.757789 C3.46936487,26.0123316 6.91835307,29.4613198 11.1728956,29.4613198 L23.3929923,29.4613198 C24.7452444,29.4613198 26.0736731,29.1053684 27.2447577,28.4292424 C30.9292996,26.3019711 32.1917169,21.5905656 30.0644457,17.9060237 L23.9543973,7.32310948 Z M32.8442179,16.3011214 C35.8578522,21.5208892 34.0694277,28.1953803 28.84966,31.2090146 C27.1906234,32.1668598 25.3086828,32.6711243 23.3929923,32.6711243 L11.1728956,32.6711243 C5.145627,32.6711243 0.259560386,27.7850577 0.259560386,21.757789 C0.259560386,19.8420986 0.76382484,17.960158 1.72167007,16.3011214 L7.83171842,5.71820724 C10.8453527,0.498439502 17.5198439,-1.289985 22.7396116,1.72364931 C24.3986482,2.68149453 25.7763243,4.05917064 26.7341695,5.71820724 L32.8442179,16.3011214 Z"/>
    </g>
  </g>
</svg>
