<svg xmlns="http://www.w3.org/2000/svg" width="264" height="60" viewBox="0 0 264 60">
  <g fill="none" fill-rule="evenodd">
    <g transform="rotate(90 19.5 26.5)">
      <g transform="translate(2.232 3.044)">
        <path fill="#AE71FA" d="M21.0260199,3.94041558 L27.5468395,15.2348065 C29.6741108,18.9193485 28.4116935,23.630754 24.7271516,25.7580252 C23.5560669,26.4341513 22.2276383,26.7901027 20.8753862,26.7901027 L7.83374691,26.7901027 C3.57920435,26.7901027 0.130216153,23.3411145 0.130216153,19.0865719 C0.130216153,17.7343198 0.486167533,16.4058912 1.16229358,15.2348065 L7.68311323,3.94041558 C9.81038451,0.255873649 14.52179,-1.00654365 18.2063319,1.12072763 C19.3774166,1.79685367 20.3498939,2.76933093 21.0260199,3.94041558 L21.0260199,3.94041558 Z"/>
        <path fill="#FFD238" d="M34.4888191,3.94041558 L41.0096388,15.2348065 C43.13691,18.9193485 41.8744927,23.630754 38.1899508,25.7580252 C37.0188661,26.4341513 35.6904375,26.7901027 34.3381854,26.7901027 L21.2965461,26.7901027 C17.0420036,26.7901027 13.5930154,23.3411145 13.5930154,19.0865719 C13.5930154,17.7343198 13.9489667,16.4058912 14.6250928,15.2348065 L21.1459124,3.94041558 C23.2731837,0.255873649 27.9845892,-1.00654365 31.6691311,1.12072763 C32.8402158,1.79685367 33.8126931,2.76933093 34.4888191,3.94041558 Z"/>
        <path fill="#FF4296" d="M30.227486,18.4544006 C31.1324609,20.0218631 29.8228872,24.7803175 28.2554246,25.6852924 C27.7572266,25.9729271 26.8586327,27 26.2833632,27 L15.7657024,27 C13.9557525,27 11.8215796,24.2084732 11.8215796,22.3985234 C11.8215796,21.8232539 10.876591,19.6099523 11.1642258,19.1117544 L21.0924146,3.04424557 L30.227486,18.4544006 Z"/>
      </g>
      <g fill="#710377" fill-rule="nonzero" transform="translate(.238 .238)">
        <path d="M36.138793,7.32310948 C35.4626669,6.15202483 34.4901897,5.17954757 33.319105,4.50342153 C29.6345631,2.37615025 24.9231576,3.63856755 22.7958863,7.32310948 L16.685838,17.9060237 C16.0097119,19.0771083 15.6537605,20.405537 15.6537605,21.757789 C15.6537605,26.0123316 19.1027487,29.4613198 23.3572913,29.4613198 L35.577388,29.4613198 C36.9296401,29.4613198 38.2580687,29.1053684 39.4291534,28.4292424 C43.1136953,26.3019711 44.3761126,21.5905656 42.2488413,17.9060237 L36.138793,7.32310948 Z M38.9185652,5.71820724 L45.0286136,16.3011214 C48.0422479,21.5208892 46.2538234,28.1953803 41.0340556,31.2090146 C39.375019,32.1668598 37.4930785,32.6711243 35.577388,32.6711243 L23.3572913,32.6711243 C17.3300227,32.6711243 12.4439561,27.7850577 12.4439561,21.757789 C12.4439561,19.8420986 12.9482205,17.960158 13.9060657,16.3011214 L20.0161141,5.71820724 C23.0297484,0.498439502 29.7042395,-1.289985 34.9240073,1.72364931 C36.5830439,2.68149453 37.96072,4.05917064 38.9185652,5.71820724 Z"/>
        <path d="M23.9543973,7.32310948 C23.2782713,6.15202483 22.305794,5.17954757 21.1347094,4.50342153 C17.4501674,2.37615025 12.7387619,3.63856755 10.6114906,7.32310948 L4.50144229,17.9060237 C3.82531625,19.0771083 3.46936487,20.405537 3.46936487,21.757789 C3.46936487,26.0123316 6.91835307,29.4613198 11.1728956,29.4613198 L23.3929923,29.4613198 C24.7452444,29.4613198 26.0736731,29.1053684 27.2447577,28.4292424 C30.9292996,26.3019711 32.1917169,21.5905656 30.0644457,17.9060237 L23.9543973,7.32310948 Z M32.8442179,16.3011214 C35.8578522,21.5208892 34.0694277,28.1953803 28.84966,31.2090146 C27.1906234,32.1668598 25.3086828,32.6711243 23.3929923,32.6711243 L11.1728956,32.6711243 C5.145627,32.6711243 0.259560386,27.7850577 0.259560386,21.757789 C0.259560386,19.8420986 0.76382484,17.960158 1.72167007,16.3011214 L7.83171842,5.71820724 C10.8453527,0.498439502 17.5198439,-1.289985 22.7396116,1.72364931 C24.3986482,2.68149453 25.7763243,4.05917064 26.7341695,5.71820724 L32.8442179,16.3011214 Z"/>
      </g>
    </g>
    <path fill="#FFF" d="M69.7441253,19.8798956 C74.4125326,19.8798956 77.2950392,21.9791123 77.2950392,25.3629243 C77.2950392,27.7754569 75.8537859,29.6240209 73.4725849,30.2193211 C76.386423,30.7519582 78.1409922,32.8511749 78.1409922,35.7650131 C78.1409922,39.5248042 75.0391645,41.8120104 70.0261097,41.8120104 L60,41.8120104 L60,19.8798956 L69.7441253,19.8798956 Z M69.5248042,28.8407311 C71.6866841,28.8407311 73.002611,27.8381201 73.002611,26.1148825 C73.002611,24.4543081 71.6866841,23.4830287 69.5248042,23.5143603 L64.1984334,23.5143603 L64.1984334,28.8407311 L69.5248042,28.8407311 Z M69.5248042,38.1775457 C72.1879896,38.2088773 73.7859008,37.1122715 73.7859008,35.232376 C73.7859008,33.4464752 72.1879896,32.3498695 69.5248042,32.381201 L64.1984334,32.381201 L64.1984334,38.1775457 L69.5248042,38.1775457 Z M84.0939948,18 C82.8093995,18 81.9007833,18.9399478 81.9007833,20.2558747 C81.9007833,21.5718016 82.8093995,22.5117493 84.0939948,22.5117493 C85.3785901,22.5117493 86.2872063,21.5718016 86.2872063,20.2558747 C86.2872063,18.9399478 85.3785901,18 84.0939948,18 Z M82.0574413,25.0496084 L82.0574413,41.8120104 L86.1305483,41.8120104 L86.1305483,25.0496084 L82.0574413,25.0496084 Z M98.5065274,24.924282 C103.738903,24.924282 107.310705,28.3394256 107.310705,33.4151436 C107.310705,38.5221932 103.738903,41.9686684 98.5065274,41.9686684 C93.2114883,41.9686684 89.6396867,38.5221932 89.6396867,33.4151436 C89.6396867,28.3394256 93.2114883,24.924282 98.5065274,24.924282 Z M98.5065274,28.4020888 C95.6866841,28.4020888 93.7441253,30.4699739 93.7441253,33.4778068 C93.7441253,36.4856397 95.6866841,38.5535248 98.5065274,38.5535248 C101.263708,38.5535248 103.206266,36.4856397 103.206266,33.4778068 C103.206266,30.4699739 101.263708,28.4020888 98.5065274,28.4020888 Z M132.814621,24.8929504 C129.869452,24.924282 127.67624,26.1775457 126.579634,28.9033943 C125.796345,26.3655352 123.759791,24.8929504 120.814621,24.8929504 C118.151436,24.924282 116.083551,25.926893 114.924282,28.151436 L114.924282,25.0496084 L110.851175,25.0496084 L110.851175,41.8120104 L114.924282,41.8120104 L114.924282,33.54047 C114.924282,30.8146214 116.522193,28.8093995 119.185379,28.7154047 C121.441253,28.7154047 122.819843,30.156658 122.819843,32.537859 L122.819843,41.8120104 L126.924282,41.8120104 L126.924282,33.54047 C126.924282,30.8146214 128.522193,28.8093995 131.154047,28.7154047 C133.409922,28.7154047 134.819843,30.156658 134.819843,32.537859 L134.819843,41.8120104 L138.924282,41.8120104 L138.924282,31.3472585 C138.924282,27.3681462 136.605744,24.8929504 132.814621,24.8929504 Z M155.530026,25.0496084 L159.603133,25.0496084 L159.603133,41.8120104 L155.530026,41.8120104 L155.530026,39.1488251 C154.339426,40.9660574 152.428198,42 149.921671,42 C145.127937,42 141.932115,38.4908616 141.932115,33.383812 C141.932115,28.3394256 145.065274,24.924282 149.765013,24.8929504 C152.334204,24.8616188 154.308094,25.8955614 155.530026,27.7441253 L155.530026,25.0496084 Z M150.798956,38.5848564 C153.430809,38.5848564 155.279373,36.767624 155.530026,34.073107 L155.530026,32.8825065 C155.279373,30.1879896 153.430809,28.3707572 150.798956,28.3707572 C148.010444,28.3707572 146.067885,30.5013055 146.036554,33.4778068 C146.067885,36.4856397 147.979112,38.5848564 150.798956,38.5848564 Z M172.449086,37.7075718 C171.54047,38.1462141 170.75718,38.3968668 170.099217,38.3968668 C168.971279,38.3968668 168.313316,37.5822454 168.313316,35.7650131 L168.313316,28.7154047 L173.10705,28.7154047 L173.10705,25.7389034 L168.313316,25.7389034 L168.313316,21.1331593 L164.240209,21.1331593 L164.240209,36.4856397 C164.240209,40.1201044 166.43342,42 169.253264,42 C170.600522,42 172.073107,41.5613577 173.389034,40.7780679 L172.449086,37.7075718 Z M178.590078,18 C177.305483,18 176.396867,18.9399478 176.396867,20.2558747 C176.396867,21.5718016 177.305483,22.5117493 178.590078,22.5117493 C179.874674,22.5117493 180.78329,21.5718016 180.78329,20.2558747 C180.78329,18.9399478 179.874674,18 178.590078,18 Z M176.553525,25.0496084 L176.553525,41.8120104 L180.626632,41.8120104 L180.626632,25.0496084 L176.553525,25.0496084 Z M197.201044,30.3446475 L199.67624,27.9947781 C198.172324,26.0522193 195.72846,24.924282 192.657963,24.924282 C187.613577,24.924282 184.13577,28.3707572 184.13577,33.4778068 C184.13577,38.5221932 187.582245,41.9686684 192.5953,41.9686684 C195.885117,41.9686684 198.391645,40.7154047 199.86423,38.5848564 L197.326371,36.4856397 C196.32376,37.8015666 194.75718,38.45953 192.814621,38.45953 C190.120104,38.45953 188.240209,36.4543081 188.240209,33.4464752 C188.240209,30.5013055 190.120104,28.4960836 192.814621,28.4960836 C194.663185,28.4960836 196.13577,29.1853786 197.201044,30.3446475 Z M227.373368,19.8798956 L227.373368,31.691906 C227.373368,35.075718 224.992167,37.7075718 221.577023,37.770235 C218.694517,37.770235 216.689295,35.7336815 216.689295,32.7885117 L216.689295,19.8798956 L212.428198,19.8798956 L212.428198,33.7911227 C212.428198,38.5848564 215.592689,41.8120104 220.041775,41.8120104 C223.237598,41.7806789 225.806789,40.464752 227.373368,38.2088773 L227.373368,41.8120104 L231.571802,41.8120104 L231.571802,19.8798956 L227.373368,19.8798956 Z M248.052219,23.5456919 L248.052219,19.8798956 L235.801567,19.8798956 L235.801567,23.5456919 L239.843342,23.5456919 L239.843342,38.1462141 L235.801567,38.1462141 L235.801567,41.8120104 L248.052219,41.8120104 L248.052219,38.1462141 L244.041775,38.1462141 L244.041775,23.5456919 L248.052219,23.5456919 Z"/>
  </g>
</svg>
